<?xml version="1.0" encoding="UTF-8"?>
<svg width="21px" height="19px" viewBox="0 0 21 19" version="1.1" xmlns="http://www.w3.org/2000/svg" xmlns:xlink="http://www.w3.org/1999/xlink">
    <!-- Generator: Sketch 53.2 (72643) - https://sketchapp.com -->
    <title>Library</title>
    <desc>Created with Sketch.</desc>
    <g id="Symbols" stroke="none" stroke-width="1" fill="none" fill-rule="evenodd">
        <g id="Navbar_Home" transform="translate(-131.000000, -13.000000)">
            <g id="Library">
                <g transform="translate(131.000000, 12.000000)">
                    <rect id="Rectangle" x="-2.27373675e-13" y="0" width="21" height="21"></rect>
                    <path d="M1,15 L16,15 C16.5522847,15 17,15.4477153 17,16 L17,19 C17,19.5522847 16.5522847,20 16,20 L1,20 C0.44771525,20 6.76353751e-17,19.5522847 0,19 L0,16 C-6.76353751e-17,15.4477153 0.44771525,15 1,15 Z M4,8 L20,8 C20.5522847,8 21,8.44771525 21,9 L21,12 C21,12.5522847 20.5522847,13 20,13 L4,13 C3.44771525,13 3,12.5522847 3,12 L3,9 C3,8.44771525 3.44771525,8 4,8 Z M1,1 L16,1 C16.5522847,1 17,1.44771525 17,2 L17,5 C17,5.55228475 16.5522847,6 16,6 L1,6 C0.44771525,6 6.76353751e-17,5.55228475 0,5 L0,2 C-6.76353751e-17,1.44771525 0.44771525,1 1,1 Z" id="Combined-Shape" fill="#EAEAEC"></path>
                </g>
            </g>
        </g>
    </g>
</svg>