<?xml version="1.0" encoding="UTF-8"?>
<svg viewBox="0 0 21 21" xmlns="http://www.w3.org/2000/svg">
<g fill="none" fill-rule="evenodd">
<path d="M0 0h21v21H0z"/>
<path d="M16.696 12.347c-.754-.744-1.428-.731-2.177.013-.571.567-.567.558-1.129 1.134-.153.158-.418.247-.606.142-.37-.202-.619-.221-.974-.442-1.656-1.042-1.926-1.264-3.155-2.772a8.804 8.804 0 0 1-1.388-2.31c-.077-.183.073-.358.222-.507.57-.552.565-.556 1.126-1.123.783-.787.786-1.427 0-2.22-.447-.45-1.739-1.738-2.185-2.189-.461-.461-1.055-1.065-1.52-1.521-.754-.735-1.416-.738-2.165.002C2.17 1.12 1.476 1.843.89 2.4.348 2.913.074 3.542.017 4.277-.074 5.473.218 6.601.63 7.701c.845 2.276 2.131 4.297 3.692 6.151 2.107 2.507 4.622 4.49 7.565 5.92 1.325.644 2.697 1.139 4.19 1.22 1.028.058 1.92-.201 2.636-1.003.49-.548 1.192-1.198 1.71-1.721.769-.778.766-1.425.003-2.193-.912-.917-2.814-2.815-3.73-3.728z" fill="#EAEAEC"/>
</g>
</svg>
