<?xml version="1.0" encoding="UTF-8"?>
<svg width="19px" height="21px" viewBox="0 0 19 21" version="1.1" xmlns="http://www.w3.org/2000/svg" xmlns:xlink="http://www.w3.org/1999/xlink">
    <!-- Generator: Sketch 53.2 (72643) - https://sketchapp.com -->
    <title>Home</title>
    <desc>Created with Sketch.</desc>
    <g id="Symbols" stroke="none" stroke-width="1" fill="none" fill-rule="evenodd">
        <g id="Navbar_Home" transform="translate(-38.000000, -12.000000)">
            <g id="Home">
                <g transform="translate(37.000000, 12.000000)">
                    <rect id="Rectangle" x="0" y="0" width="21" height="21"></rect>
                    <path d="M1,20 L1,8.47890904 C1,8.18423765 1.12996439,7.90456658 1.35519582,7.71456124 L9.85519582,0.543957118 C10.2276505,0.229754194 10.7723495,0.229754194 11.1448042,0.543957118 L19.6448042,7.71456124 C19.8700356,7.90456658 20,8.18423765 20,8.47890904 L20,20 C20,20.5522847 19.5522847,21 19,21 L13.9975065,21 C13.4452217,21 12.9975065,20.5522847 12.9975065,20 L12.9975065,16.0364595 C12.9975065,15.4841748 12.5497912,15.0364595 11.9975065,15.0364595 L9.02404176,15.0364595 C8.47175701,15.0364595 8.02404176,15.4841748 8.02404176,16.0364595 L8.02404176,20 C8.02404176,20.5522847 7.57632651,21 7.02404176,21 L2,21 C1.44771525,21 1,20.5522847 1,20 Z" id="Path-10" fill="#7D60FF"></path>
                </g>
            </g>
        </g>
    </g>
</svg>