<?xml version="1.0" encoding="UTF-8"?>
<svg width="17px" height="21px" viewBox="0 0 17 21" version="1.1" xmlns="http://www.w3.org/2000/svg" xmlns:xlink="http://www.w3.org/1999/xlink">
    <!-- Generator: Sketch 53.2 (72643) - https://sketchapp.com -->
    <title>Notebook</title>
    <desc>Created with Sketch.</desc>
    <g id="Symbols" stroke="none" stroke-width="1" fill="none" fill-rule="evenodd">
        <g id="Navbar_Notebook" transform="translate(-226.000000, -12.000000)">
            <g id="Notebook">
                <g transform="translate(224.000000, 12.000000)">
                    <rect id="Rectangle" x="0" y="0" width="21" height="21"></rect>
                    <path d="M5,20 L5,21 L4,21 L4,20 L3,20 C2.44771525,20 2,19.5522847 2,19 L2,1 C2,0.44771525 2.44771525,1.01453063e-16 3,0 L18,0 C18.5522847,-1.01453063e-16 19,0.44771525 19,1 L19,19 C19,19.5522847 18.5522847,20 18,20 L5,20 Z M6,4 L6,9 L15,9 L15,4 L6,4 Z" id="Combined-Shape" fill="#7D60FF"></path>
                </g>
            </g>
        </g>
    </g>
</svg>